<svg width="50" height="50" viewBox="0 0 22 22" fill="none" xmlns="http://www.w3.org/2000/svg">

    <path
        d="M8.86914 12.7712L8.75682 13.2013C8.71256 13.3707 8.70629 13.5482 8.73834 13.7238C8.7704 13.8994 8.84016 14.0695 8.94363 14.2245C9.04713 14.3795 9.18229 14.5163 9.3414 14.6271C9.50056 14.738 9.68056 14.8206 9.87116 14.8704C10.0618 14.9202 10.2592 14.9361 10.4522 14.9173C10.6452 14.8984 10.83 14.8452 10.9961 14.7606C11.1622 14.676 11.3062 14.5617 11.42 14.4243C11.5338 14.2868 11.6152 14.1289 11.6594 13.9594L11.7718 13.5294"
        stroke="#2E55C9" stroke-linecap="round" stroke-linejoin="round" />
    <path
        d="M14.1893 14.1609C14.1893 14.1609 13.7834 11.7581 14.1203 10.4681C14.4874 9.06276 13.4726 7.54273 11.8916 7.12978C10.3107 6.71684 8.68216 7.54643 8.3151 8.95173C7.86581 10.6718 6.44899 12.1392 6.44899 12.1392L14.1893 14.1609Z"
        stroke="#2E55C9" stroke-linecap="round" stroke-linejoin="round" />
</svg>
