<svg width="430" height="932" viewBox="0 0 430 932" fill="none" xmlns="http://www.w3.org/2000/svg">
    <path d="M75.6617 824.45C83.2436 846.881 48.4509 878.903 -2.05012 895.973C-52.5511 913.042 -119.489 915.406 -127.071 892.974C-134.653 870.543 -75.7583 850.437 -26.8526 819.91C23.6484 802.84 68.0798 802.019 75.6617 824.45Z" fill="url(#paint0_linear_0_1)"/>
    <path d="M63.5199 42.7492C110.542 42.7492 154.772 55.0759 201.099 42.7492C231.005 34.7916 251.779 16.0236 259.625 -5.5647H-88V150C-45.432 150 -18.8813 135.508 1.15095 107.829C17.9584 84.6048 9.96902 42.7492 63.5199 42.7492Z" fill="url(#paint1_linear_0_1)"/>
    <path d="M262 -14C261.427 -11.153 260.633 -8.33563 259.625 -5.5647M259.625 -5.5647C251.779 16.0236 231.005 34.7916 201.099 42.7492C154.772 55.0759 110.542 42.7492 63.5199 42.7492C9.96902 42.7492 17.9584 84.6048 1.15094 107.829C-18.8813 135.508 -45.432 150 -88 150V-5.5647H259.625Z" stroke="white" stroke-linecap="round"/>
    <path d="M510.5 331C510.5 384.572 476.474 428 434.5 428C392.526 428 342 384.572 342 331C342 277.428 391 277 435.177 247C477.15 247 510.5 277.428 510.5 331Z" fill="url(#paint2_linear_0_1)" fill-opacity="0.16"/>
    <path d="M130.192 395.844L118.118 392.494L107.929 414.886L109.742 422.678L104.386 423.925L89.3685 489.537L99.4944 493.341L130.192 395.844Z" fill="#F4F7FD" fill-opacity="0.39"/>
    <path d="M125.015 512.556L90.7287 495.381L93.789 508.53C97.2021 509.96 102.887 515.858 98.3229 528.009C93.7586 540.16 85.3828 535.641 81.7654 531.863L75.9257 555.297L96.3369 568L87.9699 582.782L71.0138 573.894L68.4444 582.706L104.158 601.602L100.468 612.215L141.345 626.829L157.453 583.55L114.003 555.675L125.015 512.556Z" fill="#F4F7FD" fill-opacity="0.39"/>
    <g filter="url(#filter0_d_0_1)">
        <rect x="50" y="382" width="10" height="10" rx="2" fill="url(#paint3_linear_0_1)"/>
    </g>
    <rect x="278" y="511" width="8" height="8" rx="2" fill="url(#paint4_linear_0_1)"/>
    <g filter="url(#filter1_d_0_1)">
        <rect x="29" y="428" width="10" height="10" rx="2" fill="url(#paint5_linear_0_1)"/>
    </g>
    <ellipse cx="61" cy="416.5" rx="4" ry="3.5" fill="#E7F2FF"/>
    <path d="M366.902 543.416L375.727 577.378C358.35 586.273 325.066 604.239 323.604 608.594C324.115 609.567 324.204 609.84 323.669 609.198C323.54 609.043 323.521 608.84 323.604 608.594C321.229 604.074 309.735 584.445 309.295 571.305C308.867 558.531 347.521 547.39 366.902 543.416Z" fill="#FAFAFE" fill-opacity="0.62"/>
    <path d="M401.76 437.505L356.159 462.502L358.661 454.903L395.111 435.317L401.76 437.505Z" fill="#FAFAFE" fill-opacity="0.62"/>
    <path d="M536.145 1026.79C500.259 1086.99 434.786 1114.11 389.906 1087.36C345.025 1060.6 320.092 979.597 355.977 919.395C391.863 859.194 444.543 889.944 511.875 884.388C556.755 911.141 572.031 966.591 536.145 1026.79Z" fill="url(#paint6_linear_0_1)" fill-opacity="0.16"/>
    <defs>
        <filter id="filter0_d_0_1" x="46" y="382" width="18" height="18" filterUnits="userSpaceOnUse" color-interpolation-filters="sRGB">
            <feFlood flood-opacity="0" result="BackgroundImageFix"/>
            <feColorMatrix in="SourceAlpha" type="matrix" values="0 0 0 0 0 0 0 0 0 0 0 0 0 0 0 0 0 0 127 0" result="hardAlpha"/>
            <feOffset dy="4"/>
            <feGaussianBlur stdDeviation="2"/>
            <feComposite in2="hardAlpha" operator="out"/>
            <feColorMatrix type="matrix" values="0 0 0 0 0.960784 0 0 0 0 0.960784 0 0 0 0 0.960784 0 0 0 1 0"/>
            <feBlend mode="normal" in2="BackgroundImageFix" result="effect1_dropShadow_0_1"/>
            <feBlend mode="normal" in="SourceGraphic" in2="effect1_dropShadow_0_1" result="shape"/>
        </filter>
        <filter id="filter1_d_0_1" x="25" y="428" width="18" height="18" filterUnits="userSpaceOnUse" color-interpolation-filters="sRGB">
            <feFlood flood-opacity="0" result="BackgroundImageFix"/>
            <feColorMatrix in="SourceAlpha" type="matrix" values="0 0 0 0 0 0 0 0 0 0 0 0 0 0 0 0 0 0 127 0" result="hardAlpha"/>
            <feOffset dy="4"/>
            <feGaussianBlur stdDeviation="2"/>
            <feComposite in2="hardAlpha" operator="out"/>
            <feColorMatrix type="matrix" values="0 0 0 0 0.904402 0 0 0 0 0.903117 0 0 0 0 0.924957 0 0 0 1 0"/>
            <feBlend mode="normal" in2="BackgroundImageFix" result="effect1_dropShadow_0_1"/>
            <feBlend mode="normal" in="SourceGraphic" in2="effect1_dropShadow_0_1" result="shape"/>
        </filter>
        <linearGradient id="paint0_linear_0_1" x1="75.969" y1="825.359" x2="-21.9226" y2="968.413" gradientUnits="userSpaceOnUse">
            <stop stop-color="#E8E9F9"/>
            <stop offset="1" stop-color="#E7EDFF"/>
        </linearGradient>
        <linearGradient id="paint1_linear_0_1" x1="-3.5" y1="79" x2="115.5" y2="-27" gradientUnits="userSpaceOnUse">
            <stop stop-color="#E8E4FF"/>
            <stop offset="1" stop-color="#E7EDFF"/>
        </linearGradient>
        <linearGradient id="paint2_linear_0_1" x1="317.116" y1="427.745" x2="426.634" y2="263.755" gradientUnits="userSpaceOnUse">
            <stop stop-color="#E7F2FF"/>
            <stop offset="1" stop-color="#859DE4"/>
        </linearGradient>
        <linearGradient id="paint3_linear_0_1" x1="50" y1="382.315" x2="60" y2="391.685" gradientUnits="userSpaceOnUse">
            <stop stop-color="#F0ECFE"/>
            <stop offset="1" stop-color="#BFBFEE"/>
        </linearGradient>
        <linearGradient id="paint4_linear_0_1" x1="278" y1="511.252" x2="286" y2="518.748" gradientUnits="userSpaceOnUse">
            <stop stop-color="#F0ECFE"/>
            <stop offset="1" stop-color="#BFBFEE"/>
        </linearGradient>
        <linearGradient id="paint5_linear_0_1" x1="29" y1="428.315" x2="39" y2="437.685" gradientUnits="userSpaceOnUse">
            <stop stop-color="#E7F2FF"/>
        </linearGradient>
        <linearGradient id="paint6_linear_0_1" x1="264.564" y1="1012.25" x2="496.287" y2="908.419" gradientUnits="userSpaceOnUse">
            <stop stop-color="#E7F2FF"/>
            <stop offset="1" stop-color="#859DE4"/>
        </linearGradient>
    </defs>
</svg>
