<svg width="377" height="245" viewBox="0 0 377 245" fill="none" xmlns="http://www.w3.org/2000/svg">
    <path d="M105.192 13.8438L93.1179 10.4936L82.9289 32.8864L84.7425 40.6781L79.3857 41.9249L64.3685 107.537L74.4944 111.341L105.192 13.8438Z" fill="#859DE413" fill-opacity="0.52"/>
    <path d="M100.015 130.556L65.7287 113.381L68.789 126.53C72.2021 127.96 77.8871 133.858 73.3229 146.009C68.7586 158.16 60.3828 153.641 56.7654 149.863L50.9257 173.297L71.3369 186L62.9699 200.782L46.0138 191.894L43.4444 200.706L79.1578 219.602L75.4675 230.215L116.345 244.829L132.453 201.551L89.0027 173.675L100.015 130.556Z" fill="#859DE413" fill-opacity="0.52"/>
    <g filter="url(#filter0_d_0_1)">
        <rect x="25" width="10" height="10" rx="2" fill="url(#paint0_linear_0_1)"/>
    </g>
    <g filter="url(#filter1_d_0_1)">
        <rect x="4" y="46" width="10" height="10" rx="2" fill="url(#paint1_linear_0_1)"/>
    </g>
    <path d="M341.901 161.416L350.726 195.378C333.349 204.273 300.065 222.239 298.603 226.594C299.114 227.567 299.203 227.84 298.669 227.198C298.54 227.043 298.521 226.84 298.603 226.594C296.228 222.074 284.735 202.445 284.295 189.305C283.867 176.531 322.521 165.39 341.901 161.416Z" fill="#859DE413" fill-opacity="0.1"/>
    <path d="M376.76 55.5053L331.159 80.502L333.66 72.903L370.111 53.3168L376.76 55.5053Z" fill="#859DE413" fill-opacity="0.4"/>
    <defs>
        <filter id="filter0_d_0_1" x="21" y="0" width="18" height="18" filterUnits="userSpaceOnUse" color-interpolation-filters="sRGB">
            <feFlood flood-opacity="0" result="BackgroundImageFix"/>
            <feColorMatrix in="SourceAlpha" type="matrix" values="0 0 0 0 0 0 0 0 0 0 0 0 0 0 0 0 0 0 127 0" result="hardAlpha"/>
            <feOffset dy="4"/>
            <feGaussianBlur stdDeviation="2"/>
            <feComposite in2="hardAlpha" operator="out"/>
            <feColorMatrix type="matrix" values="0 0 0 0 0.960784 0 0 0 0 0.960784 0 0 0 0 0.960784 0 0 0 1 0"/>
            <feBlend mode="normal" in2="BackgroundImageFix" result="effect1_dropShadow_0_1"/>
            <feBlend mode="normal" in="SourceGraphic" in2="effect1_dropShadow_0_1" result="shape"/>
        </filter>
        <filter id="filter1_d_0_1" x="0" y="46" width="18" height="18" filterUnits="userSpaceOnUse" color-interpolation-filters="sRGB">
            <feFlood flood-opacity="0" result="BackgroundImageFix"/>
            <feColorMatrix in="SourceAlpha" type="matrix" values="0 0 0 0 0 0 0 0 0 0 0 0 0 0 0 0 0 0 127 0" result="hardAlpha"/>
            <feOffset dy="4"/>
            <feGaussianBlur stdDeviation="2"/>
            <feComposite in2="hardAlpha" operator="out"/>
            <feColorMatrix type="matrix" values="0 0 0 0 0.904402 0 0 0 0 0.903117 0 0 0 0 0.924957 0 0 0 1 0"/>
            <feBlend mode="normal" in2="BackgroundImageFix" result="effect1_dropShadow_0_1"/>
            <feBlend mode="normal" in="SourceGraphic" in2="effect1_dropShadow_0_1" result="shape"/>
        </filter>
        <linearGradient id="paint0_linear_0_1" x1="25" y1="0.315147" x2="35" y2="9.68485" gradientUnits="userSpaceOnUse">
            <stop stop-color="#F0ECFE"/>
            <stop offset="1" stop-color="#BFBFEE"/>
        </linearGradient>
        <linearGradient id="paint1_linear_0_1" x1="4" y1="46.3151" x2="14" y2="55.6849" gradientUnits="userSpaceOnUse">
            <stop stop-color="#E7F2FF"/>
        </linearGradient>
    </defs>
</svg>
