<svg width="20" height="20" viewBox="0 0 20 20" fill="none" xmlns="http://www.w3.org/2000/svg">
<path d="M9.125 10.5833L7.91667 9.39583C7.76389 9.24306 7.57306 9.16667 7.34417 9.16667C7.11528 9.16667 6.91722 9.25 6.75 9.41667C6.59722 9.56945 6.52083 9.76389 6.52083 10C6.52083 10.2361 6.59722 10.4306 6.75 10.5833L8.54167 12.375C8.70833 12.5417 8.90278 12.625 9.125 12.625C9.34722 12.625 9.54167 12.5417 9.70833 12.375L13.25 8.83334C13.4167 8.66667 13.4964 8.47222 13.4892 8.25C13.4819 8.02778 13.4022 7.83333 13.25 7.66667C13.0833 7.5 12.8856 7.41333 12.6567 7.40667C12.4278 7.4 12.2297 7.47972 12.0625 7.64584L9.125 10.5833ZM6.79167 18.125L5.58333 16.0833L3.29167 15.5833C3.08333 15.5417 2.91667 15.4342 2.79167 15.2608C2.66667 15.0875 2.61806 14.8964 2.64583 14.6875L2.875 12.3333L1.3125 10.5417C1.17361 10.3889 1.10417 10.2083 1.10417 10C1.10417 9.79167 1.17361 9.61111 1.3125 9.45834L2.875 7.66667L2.64583 5.3125C2.61806 5.10417 2.66667 4.91306 2.79167 4.73917C2.91667 4.56528 3.08333 4.45778 3.29167 4.41667L5.58333 3.91667L6.79167 1.875C6.90278 1.69445 7.05556 1.57278 7.25 1.51C7.44445 1.44722 7.63889 1.45778 7.83333 1.54167L10 2.45834L12.1667 1.54167C12.3611 1.45834 12.5556 1.44778 12.75 1.51C12.9444 1.57222 13.0972 1.69389 13.2083 1.875L14.4167 3.91667L16.7083 4.41667C16.9167 4.45834 17.0833 4.56611 17.2083 4.74C17.3333 4.91389 17.3819 5.10472 17.3542 5.3125L17.125 7.66667L18.6875 9.45834C18.8264 9.61111 18.8958 9.79167 18.8958 10C18.8958 10.2083 18.8264 10.3889 18.6875 10.5417L17.125 12.3333L17.3542 14.6875C17.3819 14.8958 17.3333 15.0869 17.2083 15.2608C17.0833 15.4347 16.9167 15.5422 16.7083 15.5833L14.4167 16.0833L13.2083 18.125C13.0972 18.3056 12.9444 18.4272 12.75 18.49C12.5556 18.5528 12.3611 18.5422 12.1667 18.4583L10 17.5417L7.83333 18.4583C7.63889 18.5417 7.44445 18.5522 7.25 18.49C7.05556 18.4278 6.90278 18.3061 6.79167 18.125Z" fill="#675AFF"/>
</svg>
