<svg width="68" height="85" viewBox="0 0 68 85" fill="none" xmlns="http://www.w3.org/2000/svg">
    <path d="M51.7203 38V33.5C51.7203 31.5109 50.9681 29.6032 49.6291 28.1967C48.2901 26.7902 46.4741 26 44.5805 26C42.6869 26 40.8708 26.7902 39.5318 28.1967C38.1928 29.6032 37.4406 31.5109 37.4406 33.5V9.5C37.4406 7.51088 36.6884 5.60322 35.3494 4.1967C34.0104 2.79018 32.1944 2 30.3008 2C28.4072 2 26.5911 2.79018 25.2521 4.1967C23.9132 5.60322 23.1609 7.51088 23.1609 9.5V54.9875L15.3428 40.7375C14.396 39.0119 12.8354 37.7521 11.0044 37.2352C9.1733 36.7183 7.22176 36.9867 5.57906 37.9812C3.93636 38.9758 2.73705 40.6151 2.24498 42.5385C1.7529 44.462 2.00836 46.5119 2.95517 48.2375C14.5931 74 21.6616 83 37.4406 83C41.1911 83 44.9048 82.224 48.3698 80.7164C51.8348 79.2087 54.9832 76.999 57.6352 74.2132C60.2871 71.4274 62.3908 68.1203 63.826 64.4805C65.2613 60.8407 66 56.9397 66 53V38C66 36.0109 65.2478 34.1032 63.9088 32.6967C62.5698 31.2902 60.7538 30.5 58.8602 30.5C56.9666 30.5 55.1505 31.2902 53.8115 32.6967C52.4725 34.1032 51.7203 36.0109 51.7203 38Z" stroke="white" stroke-width="4" stroke-linecap="round" stroke-linejoin="round"/>
</svg>
