<svg xmlns="http://www.w3.org/2000/svg" xmlns:xlink="http://www.w3.org/1999/xlink" version="1.1" id="Layer_1" x="0px" y="0px" viewBox="0 0 1000 1000" style="enable-background:new 0 0 1000 1000;" xml:space="preserve">
<style type="text/css">
.st0{fill:url(#SVGID_1_);}
.st1{fill:url(#SVGID_00000039116159928693171730000006477504485178789272_);}
.st2{opacity:0.64;fill:url(#SVGID_00000173858498476112498370000014568222830348898209_);}
.st3{fill:url(#SVGID_00000179646700170787514700000008800202618118864523_);}
.st4{fill:url(#SVGID_00000059271456190866155450000002920016383390138040_);}
.st5{opacity:0.64;}
.st6{stroke:#F6F6F6;stroke-width:5;stroke-miterlimit:10;}
</style>
    <radialGradient id="SVGID_1_" cx="780.3605" cy="788.2346" r="158.9085" gradientUnits="userSpaceOnUse">
<stop offset="0" style="stop-color:#FFCE5A"></stop>
        <stop offset="0.8968" style="stop-color:#FFCE42"></stop>
        <stop offset="1" style="stop-color:#FFCE3F"></stop>
</radialGradient>
    <ellipse class="st0" cx="780.36" cy="788.23" rx="159.37" ry="158.45" style="fill:url(#SVGID_1_);"></ellipse>
    <g>
<g>
<g>

<linearGradient id="SVGID_00000069382754044725863280000008779051906909984403_" gradientUnits="userSpaceOnUse" x1="483.0805" y1="502.5896" x2="-61.3019" y2="-232.6795">
<stop offset="0" style="stop-color:#7B68ED"></stop>
    <stop offset="1" style="stop-color:#BAA9F6"></stop>
</linearGradient>
    <path style="fill:url(#SVGID_00000069382754044725863280000008779051906909984403_);" d="M508.99,375.27l-132.04-228.7     C335.66,75.06,259.35,31,176.77,31H65.31l321.22,556.37L508.99,375.27z"></path>
</g>

    <linearGradient id="SVGID_00000101787955320678747130000011870490112639968702_" gradientUnits="userSpaceOnUse" x1="475.8245" y1="519.2266" x2="392.5874" y2="406.8026">
<stop offset="0.4205" style="stop-color:#BAA8F6"></stop>
        <stop offset="1" style="stop-color:#95ACFF"></stop>
</linearGradient>
    <polygon style="opacity:0.64;fill:url(#SVGID_00000101787955320678747130000011870490112639968702_);" points="508.99,375.27     360.59,542.44 386.53,587.37   "></polygon>
</g>
        <g>

<linearGradient id="SVGID_00000180359485778641863480000010763887101019774885_" gradientUnits="userSpaceOnUse" x1="860.4144" y1="-2.9447" x2="270.0793" y2="841.907">
<stop offset="0" style="stop-color:#7B68ED"></stop>
    <stop offset="1" style="stop-color:#95ACFF"></stop>
</linearGradient>
            <path style="fill:url(#SVGID_00000180359485778641863480000010763887101019774885_);" d="M841.2,31    c-82.58,0-158.89,44.06-200.18,115.57L185.28,935.94L952.66,31H841.2z"></path>

            <linearGradient id="SVGID_00000039092174033154386000000018090706541334055051_" gradientUnits="userSpaceOnUse" x1="922.5291" y1="186.7396" x2="120.0984" y2="1144.7086">
<stop offset="0" style="stop-color:#744DED"></stop>
                <stop offset="1" style="stop-color:#95ACFF"></stop>
</linearGradient>
            <path style="fill:url(#SVGID_00000039092174033154386000000018090706541334055051_);" d="M185.28,935.94h111.46    c82.58,0,158.89-44.06,200.18-115.57L952.66,31L185.28,935.94z"></path>
</g>
</g>
    <g class="st5">
<path class="st6" d="M746.14,835.78H722.9l-41.87-71.47v71.47H659.3V727.21h23.24l41.87,71.55v-71.55h21.73V835.78z"></path>
        <path class="st6" d="M796.34,815.94c0.81,0.25,1.61,0.42,2.42,0.49c0.81,0.08,1.61,0.11,2.42,0.11c2.02,0,3.96-0.28,5.83-0.83   c1.87-0.55,3.62-1.35,5.26-2.38c1.64-1.03,3.1-2.3,4.39-3.79c1.29-1.49,2.33-3.14,3.14-4.96l15.14,15.22   c-1.92,2.73-4.13,5.17-6.62,7.34c-2.5,2.17-5.2,4.01-8.1,5.53c-2.9,1.51-5.96,2.66-9.16,3.45c-3.21,0.78-6.5,1.17-9.88,1.17   c-5.7,0-11.07-1.06-16.09-3.18c-5.02-2.12-9.41-5.07-13.17-8.86c-3.76-3.79-6.73-8.29-8.9-13.51s-3.25-10.96-3.25-17.22   c0-6.41,1.08-12.26,3.25-17.56s5.14-9.82,8.9-13.55c3.76-3.74,8.15-6.64,13.17-8.71c5.02-2.07,10.38-3.1,16.09-3.1   c3.38,0,6.69,0.41,9.92,1.21c3.23,0.81,6.29,1.97,9.2,3.48c2.9,1.51,5.61,3.37,8.14,5.56c2.52,2.2,4.74,4.66,6.66,7.38   L796.34,815.94z M806.94,773.32c-0.96-0.35-1.91-0.58-2.84-0.68c-0.93-0.1-1.91-0.15-2.92-0.15c-2.83,0-5.49,0.52-7.99,1.55   c-2.5,1.04-4.67,2.51-6.51,4.43c-1.84,1.92-3.29,4.23-4.35,6.93c-1.06,2.7-1.59,5.74-1.59,9.12c0,0.76,0.04,1.62,0.11,2.57   c0.08,0.96,0.2,1.93,0.38,2.92c0.18,0.98,0.39,1.93,0.64,2.84c0.25,0.91,0.58,1.72,0.98,2.42L806.94,773.32z"></path>
        <path class="st6" d="M886.13,835.78c-5,0-9.69-0.95-14.08-2.84s-8.24-4.49-11.55-7.8c-3.31-3.3-5.91-7.15-7.8-11.55   c-1.89-4.39-2.84-9.08-2.84-14.08v-24.08H839.8v-20.59h10.07v-32.4h20.59v32.4h31.34v20.59h-31.34v24.08c0,2.17,0.4,4.2,1.21,6.09   s1.92,3.55,3.33,4.96c1.41,1.41,3.08,2.54,5,3.37c1.92,0.83,3.96,1.25,6.13,1.25h15.67v20.59H886.13z"></path>
</g>
</svg>
