<?xml version="1.0" encoding="UTF-8"?>
<svg version="1.1" xmlns="http://www.w3.org/2000/svg" width="41" height="42">
<path d="M0 0 C13.53 0 27.06 0 41 0 C41 13.86 41 27.72 41 42 C27.47 42 13.94 42 0 42 C0 28.14 0 14.28 0 0 Z " fill="#FAFBFC" transform="translate(0,0)"/>
<path d="M0 0 C2.9375 2.5 2.9375 2.5 5 5 C5.33 5.33 5.66 5.66 6 6 C6.46131589 9.10644505 6.6093021 12.24255596 6.8125 15.375 C6.88919922 16.2515625 6.96589844 17.128125 7.04492188 18.03125 C7.1963947 20.41831579 7.29775413 22.62602996 7 25 C5.01171875 27.1015625 5.01171875 27.1015625 3 28 C2.41798828 27.27876953 2.41798828 27.27876953 1.82421875 26.54296875 C-0.54088647 24.54250502 -2.12691453 24.51123932 -5.1875 24.3125 C-6.08855469 24.24675781 -6.98960938 24.18101563 -7.91796875 24.11328125 C-8.60503906 24.07589844 -9.29210937 24.03851563 -10 24 C-10 23.34 -10 22.68 -10 22 C-11.32 21.34 -12.64 20.68 -14 20 C-14 19.34 -14 18.68 -14 18 C-14.99 17.67 -15.98 17.34 -17 17 C-17.91062395 8.61888702 -17.91062395 8.61888702 -15.76953125 4.8125 C-11.21288914 -0.58796472 -7.02722422 -2.05474393 0 0 Z " fill="#F4F5F5" transform="translate(27,11)"/>
<path d="M0 0 C2.9375 2.5 2.9375 2.5 5 5 C5.33 5.33 5.66 5.66 6 6 C6.07179964 7.51928038 6.08392007 9.04167482 6.0625 10.5625 C6.05347656 11.38878906 6.04445313 12.21507812 6.03515625 13.06640625 C6.02355469 13.70449219 6.01195313 14.34257812 6 15 C5.34 15 4.68 15 4 15 C3.97421875 14.37351562 3.9484375 13.74703125 3.921875 13.1015625 C3.86515625 12.28429688 3.8084375 11.46703125 3.75 10.625 C3.70359375 9.81289063 3.6571875 9.00078125 3.609375 8.1640625 C3.21095516 5.85497775 3.21095516 5.85497775 1.16796875 4.765625 C-1.9840275 3.65248759 -4.64702606 3.11764821 -8 3 C-11.08817732 4.25387006 -11.08817732 4.25387006 -13 7 C-13.82221316 11.26523078 -13.44729273 14.3290609 -11 18 C-8.81494871 18.79437923 -8.81494871 18.79437923 -6.375 19.1875 C-5.55773438 19.34605469 -4.74046875 19.50460938 -3.8984375 19.66796875 C-2.95871094 19.83232422 -2.95871094 19.83232422 -2 20 C-2 20.99 -2 21.98 -2 23 C-9.33333333 23.36666667 -9.33333333 23.36666667 -12.5 21.625 C-14 20 -14 20 -14 18 C-14.99 17.67 -15.98 17.34 -17 17 C-17.91062395 8.61888702 -17.91062395 8.61888702 -15.76953125 4.8125 C-11.21288914 -0.58796472 -7.02722422 -2.05474393 0 0 Z " fill="#A5A5A7" transform="translate(27,11)"/>
<path d="M0 0 C4.3360467 1.19615082 6.00844808 2.35268521 8.625 6 C8.9375 9.8125 8.9375 9.8125 8.625 13 C4.995 13 1.365 13 -2.375 13 C-2.375 9.37 -2.375 5.74 -2.375 2 C-3.695 2.33 -5.015 2.66 -6.375 3 C-4.41233106 0.11372215 -3.57166036 0 0 0 Z " fill="#E7E7E9" transform="translate(22.375,13)"/>
<path d="M0 0 C0.33 0 0.66 0 1 0 C1.28875 0.928125 1.5775 1.85625 1.875 2.8125 C2.8875 6.09791667 2.8875 6.09791667 5 9 C7.18505129 9.79437923 7.18505129 9.79437923 9.625 10.1875 C10.44226562 10.34605469 11.25953125 10.50460938 12.1015625 10.66796875 C12.72804688 10.77753906 13.35453125 10.88710938 14 11 C14 11.99 14 12.98 14 14 C6.75898264 14.61364554 6.75898264 14.61364554 3.0625 11.625 C-0.16998406 7.51092937 -0.09640109 5.20565883 0 0 Z " fill="#A7A6A7" transform="translate(11,20)"/>
<path d="M0 0 C0.99 0 1.98 0 3 0 C3.58052245 3.00988272 4.05989746 5.92889402 4 9 C2.0625 11.0625 2.0625 11.0625 0 12 C-1.5 10.6875 -1.5 10.6875 -3 9 C-3 8.01 -3 7.02 -3 6 C-2.01 6 -1.02 6 0 6 C0 4.02 0 2.04 0 0 Z " fill="#5DC031" transform="translate(30,27)"/>
<path d="M0 0 C0.99 0 1.98 0 3 0 C3 1.98 3 3.96 3 6 C4.98 6 6.96 6 9 6 C8.67 6.99 8.34 7.98 8 9 C5.36 9 2.72 9 0 9 C0 6.03 0 3.06 0 0 Z " fill="#A5A5A7" transform="translate(20,17)"/>
<path d="M0 0 C0.33 0 0.66 0 1 0 C1.268125 0.9075 1.53625 1.815 1.8125 2.75 C2.89576294 5.71471963 3.98359457 7.6169754 6 10 C5.67 10.66 5.34 11.32 5 12 C2 11 2 11 0.8125 9.375 C-0.27499354 6.19617272 -0.1282071 3.33338467 0 0 Z " fill="#959496" transform="translate(11,20)"/>
<path d="M0 0 C0.99 0 1.98 0 3 0 C3 1.98 3 3.96 3 6 C2.01 6 1.02 6 0 6 C0 4.02 0 2.04 0 0 Z " fill="#96D87C" transform="translate(30,27)"/>
<path d="M0 0 C0.33 0 0.66 0 1 0 C1.3125 2.25 1.3125 2.25 1 5 C-1.5 7.3125 -1.5 7.3125 -4 9 C-3.35499066 5.51694958 -1.95865224 2.93797836 0 0 Z " fill="#D7EFD1" transform="translate(34,33)"/>
</svg>
