<svg width="94" height="79" viewBox="0 0 94 79" fill="none" xmlns="http://www.w3.org/2000/svg">
    <path d="M8.5666 12.0136C7.70824 14.7943 9.14402 17.7658 11.856 18.8213C9.07533 17.9629 6.10392 19.3987 5.04842 22.1107C5.90678 19.33 4.47099 16.3586 1.75898 15.3031C4.53969 16.1614 7.51109 14.7256 8.5666 12.0136Z" fill="#D9D6FE"/>
    <path d="M6.79989 53.9289C7.47772 55.7467 9.44476 56.7319 11.3065 56.1862C9.48867 56.864 8.5034 58.831 9.04917 60.6927C8.37134 58.875 6.4043 57.8897 4.5426 58.4355C6.36039 57.7576 7.34566 55.7906 6.79989 53.9289Z" fill="#D9D6FE"/>
    <path d="M45.6273 2.25266C45.4004 4.17939 46.7006 5.95407 48.6061 6.31853C46.6794 6.09162 44.9047 7.3918 44.5402 9.29731C44.7671 7.37058 43.4669 5.59589 41.5614 5.23143C43.4882 5.45835 45.2628 4.15816 45.6273 2.25266Z" fill="#D9D6FE"/>
    <path d="M4.59054 38.8817C4.2941 39.8029 4.75968 40.7965 5.6572 41.1582C4.73606 40.8618 3.7424 41.3274 3.38068 42.2249C3.67712 41.3038 3.21154 40.3101 2.31402 39.9484C3.23516 40.2448 4.22882 39.7792 4.59054 38.8817Z" fill="#D9D6FE"/>
    <path d="M42.1906 49.314C41.8942 50.2352 42.3598 51.2288 43.2573 51.5905C42.3362 51.2941 41.3425 51.7597 40.9808 52.6572C41.2772 51.7361 40.8116 50.7424 39.9141 50.3807C40.8353 50.6771 41.8289 50.2116 42.1906 49.314Z" fill="#D9D6FE"/>
    <path d="M37.9182 12.5685C37.6217 13.4897 38.0873 14.4834 38.9848 14.8451C38.0637 14.5486 37.07 15.0142 36.7083 15.9117C37.0048 14.9906 36.5392 13.9969 35.6417 13.6352C36.5628 13.9317 37.5565 13.4661 37.9182 12.5685Z" fill="#D9D6FE"/>
    <g clip-path="url(#clip0_10060_4814)">
        <path d="M27.015 43.2749C27.015 43.2749 27.353 42.3393 28.0213 40.4305C28.6502 38.6254 30.2588 33.9524 30.1282 31.6677C29.787 25.6629 23.5825 21.2697 21.0227 15.018C19.6201 11.5949 20.1862 10.5289 19.3513 10.2631C18.5163 9.99739 16.3402 15.9598 19.2821 20.9961C19.2821 20.9961 16.5776 20.6061 16.1908 21.386C15.804 22.1659 17.4566 23.787 18.845 24.4034C18.845 24.4034 15.51 25.449 15.3858 26.6047C15.2615 27.7604 18.0352 28.6786 19.3167 28.773C19.3167 28.773 17.26 29.685 17.3166 30.5859C17.4015 31.9727 20.4472 31.9712 20.4472 31.9712C20.4472 31.9712 19.1217 32.6457 19.3465 33.2951C19.6453 34.1788 22.0353 34.3423 22.0353 34.3423C22.0353 34.3423 21.257 36.7464 24.3026 37.1317C24.3026 37.1317 23.9158 39.05 26.2822 39.1144C26.2822 39.1144 26.7414 40.2151 26.6061 41.1396C26.4709 42.0642 26.647 43.1711 27.015 43.2749Z" fill="#EBEBEB"/>
        <path d="M27.3074 40.6317C27.3129 40.4096 27.2626 40.1895 27.1611 39.9918C26.8938 39.3833 26.6894 38.627 27.3058 37.976V38.0877C26.5196 37.7528 26.1721 36.9021 26.8875 35.943C27.069 35.6973 27.2738 35.4698 27.4992 35.2637L27.5495 35.4823C24.573 35.9272 24.7523 34.5388 27.224 32.6976L27.2822 32.9979C24.1375 33.6567 23.2255 33.0262 26.2397 30.0985L26.301 30.3909C26.0792 30.4048 25.8566 30.3819 25.6422 30.3233C24.3042 29.9648 24.584 28.4522 25.0038 27.1078C25.301 26.1393 25.2554 25.1518 24.8057 24.427C24.3689 23.7309 23.7617 23.1578 23.0415 22.7618C22.6937 22.5554 22.3286 22.3797 21.9503 22.2367C22.3407 22.35 22.7188 22.5017 23.0793 22.6895C24.5935 23.4584 25.8844 24.8201 25.2366 27.1393C25.0479 27.8673 24.823 28.5953 24.9787 29.2557C25.1438 29.8846 25.7649 30.0812 26.3341 30.0529L26.7193 30.0324L26.4048 30.3469C26.0683 30.6614 24.463 32.2809 24.7318 32.7055C25.2035 33.1001 26.6391 32.8029 27.2885 32.6772L27.9395 32.5372C27.364 32.9775 25.7381 34.0891 25.6139 34.858C25.6674 35.4367 27.1328 35.2873 27.5699 35.2385L27.9143 35.1945C27.4347 35.6269 26.8136 36.1269 26.6831 36.8219C26.5935 37.421 27.0479 37.8094 27.4505 38.0012C26.7791 38.6301 26.963 39.3188 27.1973 39.9745C27.2873 40.1835 27.3256 40.4111 27.3089 40.638L27.3074 40.6317Z" fill="#C7C7C7"/>
        <path d="M23.9866 29.4413C23.6819 29.7343 23.3947 30.0452 23.1265 30.3721C22.9159 30.6535 22.6643 30.9586 22.6124 31.3155C22.5809 32.1489 23.6344 32.347 24.2068 32.424L24.364 32.4398C24.1081 32.7462 23.8852 33.0788 23.6989 33.4319C23.0275 34.6977 24.6973 34.5797 25.3436 34.5137L25.1769 34.7118C24.8703 35.0766 24.3451 35.8722 24.7807 36.1663C25.2021 36.3911 25.765 36.3612 26.2634 36.3376H26.3672C26.026 36.7197 25.8247 37.3235 26.0763 37.7198C26.1417 37.8399 26.2292 37.9466 26.3342 38.0342C25.8137 37.7103 25.7697 37.0012 26.2272 36.3738L26.254 36.4634C25.7398 36.5059 24.8624 36.6207 24.5244 36.1898C24.2665 35.6883 24.7068 35.0231 25.0511 34.5876L25.103 34.7653C24.6752 34.8276 24.239 34.7933 23.8262 34.6646C22.8498 34.314 23.5479 33.1803 24.114 32.4791L24.1502 32.652C23.5039 32.5545 22.408 32.2982 22.4787 31.3422C22.6077 30.6473 23.4898 29.8894 23.9788 29.4554L23.9866 29.4413Z" fill="#C7C7C7"/>
        <path d="M29.2999 34.27C29.9289 32.3061 29.5892 30.152 28.8848 28.251C28.2008 26.5796 27.1159 25.1063 26.1049 23.6267C25.1347 22.2729 23.7337 20.3483 22.8108 18.9898C21.7762 17.4174 20.7022 15.8277 20.2195 13.9849C20.3123 14.9283 20.6503 15.8545 21.0387 16.7271C21.8343 18.4693 22.8862 20.0763 23.9555 21.6549C25.0247 23.2336 26.1568 24.7446 27.2008 26.3233C27.7329 27.0889 28.184 27.9078 28.5467 28.7667C29.2433 30.4963 29.6285 32.413 29.2999 34.27Z" fill="white"/>
        <path d="M23.163 36.5515C23.163 36.5515 20.9506 30.435 26.8407 27.3044C32.7308 24.1738 36.2749 29.7636 36.2749 29.7636C36.2749 29.7636 31.432 34.7165 23.163 36.5515Z" fill="white"/>
        <path d="M23.1646 36.5515C31.4321 34.7165 36.2734 29.7636 36.2734 29.7636C36.2734 29.7636 28.8173 31.0969 23.1646 36.5515Z" fill="white"/>
        <path d="M27.4068 28.3988C27.3301 28.4408 27.2458 28.4671 27.1588 28.4764C27.0718 28.4857 26.9838 28.4777 26.8999 28.4529C26.8161 28.428 26.7379 28.3868 26.67 28.3317C26.6021 28.2765 26.5458 28.2085 26.5043 28.1315L26.053 27.2997C25.9691 27.1445 25.9501 26.9624 26.0002 26.7932C26.0503 26.624 26.1654 26.4816 26.3203 26.3971C26.4755 26.3132 26.6576 26.2942 26.8268 26.3443C26.996 26.3944 27.1384 26.5095 27.2228 26.6645L27.6741 27.4962C27.758 27.6514 27.7771 27.8336 27.7269 28.0027C27.6768 28.1719 27.5617 28.3143 27.4068 28.3988Z" fill="white"/>
        <path opacity="0.4" d="M27.4068 28.3988C27.3301 28.4408 27.2458 28.4671 27.1588 28.4764C27.0718 28.4857 26.9838 28.4777 26.8999 28.4529C26.8161 28.428 26.7379 28.3868 26.67 28.3317C26.6021 28.2765 26.5458 28.2085 26.5043 28.1315L26.053 27.2997C25.9691 27.1445 25.9501 26.9624 26.0002 26.7932C26.0503 26.624 26.1654 26.4816 26.3203 26.3971C26.4755 26.3132 26.6576 26.2942 26.8268 26.3443C26.996 26.3944 27.1384 26.5095 27.2228 26.6645L27.6741 27.4962C27.758 27.6514 27.7771 27.8336 27.7269 28.0027C27.6768 28.1719 27.5617 28.3143 27.4068 28.3988Z" fill="white"/>
        <path opacity="0.2" d="M23.1646 36.5515C31.4321 34.7165 36.2734 29.7636 36.2734 29.7636C36.2734 29.7636 28.8173 31.0969 23.1646 36.5515Z" fill="black"/>
        <path d="M30.365 34.8954L30.6251 34.7535C30.7466 34.6872 30.8368 34.5755 30.8758 34.4427C30.9148 34.31 30.8995 34.1672 30.8333 34.0457L29.1963 31.0445L28.0243 31.6837L29.6613 34.6849C29.7272 34.8057 29.8381 34.8956 29.9698 34.935C30.1016 34.9744 30.2436 34.9602 30.365 34.8954Z" fill="white"/>
        <path opacity="0.3" d="M30.365 34.8954L30.6251 34.7535C30.7466 34.6872 30.8368 34.5755 30.8758 34.4427C30.9148 34.31 30.8995 34.1672 30.8333 34.0457L29.1963 31.0445L28.0243 31.6837L29.6613 34.6849C29.7272 34.8057 29.8381 34.8956 29.9698 34.935C30.1016 34.9744 30.2436 34.9602 30.365 34.8954Z" fill="black"/>
        <path d="M23.1646 36.5515C28.8173 31.0969 36.2734 29.7636 36.2734 29.7636C36.2734 29.7636 32.7293 24.1722 26.8393 27.3044C20.9492 30.4365 23.1646 36.5515 23.1646 36.5515Z" fill="white"/>
        <path opacity="0.4" d="M23.1646 36.5515C28.8173 31.0969 36.2734 29.7636 36.2734 29.7636C36.2734 29.7636 32.7293 24.1722 26.8393 27.3044C20.9492 30.4365 23.1646 36.5515 23.1646 36.5515Z" fill="white"/>
        <g opacity="0.3">
            <path d="M28.2433 26.7006C30.5547 27.045 32.4399 29.1378 33.4525 30.5262C34.0563 30.3265 34.5862 30.1724 35.0249 30.0545C31.9761 26.0182 28.4367 26.6613 28.2637 26.6959L28.2433 26.7006Z" fill="white"/>
            <path d="M27.7307 26.8877C29.5422 27.856 31.0881 29.2544 32.2324 30.9601C32.4195 30.8878 32.6035 30.8218 32.7827 30.7573C30.5468 27.7399 27.7307 26.8877 27.7307 26.8877Z" fill="white"/>
        </g>
        <path opacity="0.1" d="M23.1642 36.5499C25.68 34.1222 28.5605 32.5074 30.9741 31.4665C29.3782 32.1158 25.2366 33.6678 24.3277 32.8816C23.5416 32.2007 24.2743 29.4916 25.6438 28.0623C21.2695 31.3139 23.1642 36.5499 23.1642 36.5499Z" fill="black"/>
        <path d="M54.6524 53.6273C54.0606 55.5757 53.0892 57.3878 51.7943 58.9593C50.4994 60.5308 48.9064 61.8306 47.1072 62.7841C45.3079 63.7375 43.3378 64.3256 41.3103 64.5146C39.2828 64.7037 37.238 64.4898 35.2935 63.8854L30.2776 62.3603L40.2653 33.13L43.5091 34.1096C43.7669 34.1735 44.0258 34.2453 44.2858 34.325C46.2375 34.9061 48.055 35.8674 49.6337 37.1536C51.2125 38.4398 52.5212 40.0255 53.4847 41.8195C54.4482 43.6135 55.0474 45.5804 55.2478 47.6068C55.4482 49.6333 55.2458 51.6794 54.6524 53.6273Z" fill="white"/>
        <path opacity="0.2" d="M54.6524 53.6273C54.0606 55.5757 53.0892 57.3878 51.7943 58.9593C50.4994 60.5308 48.9064 61.8306 47.1072 62.7841C45.3079 63.7375 43.3378 64.3256 41.3103 64.5146C39.2828 64.7037 37.238 64.4898 35.2935 63.8854L30.2776 62.3603L40.2653 33.13L43.5091 34.1096C43.7669 34.1735 44.0258 34.2453 44.2858 34.325C46.2375 34.9061 48.055 35.8674 49.6337 37.1536C51.2125 38.4398 52.5212 40.0255 53.4847 41.8195C54.4482 43.6135 55.0474 45.5804 55.2478 47.6068C55.4482 49.6333 55.2458 51.6794 54.6524 53.6273Z" fill="black"/>
        <g opacity="0.05">
            <path d="M31.792 57.9388L44.1413 63.9782C45.7026 63.5321 47.1837 62.8422 48.5298 61.9341L33.0184 54.3475L31.792 57.9388Z" fill="black"/>
            <path d="M33.3485 53.3726L49.4589 61.2517C49.7828 60.997 50.0973 60.7287 50.4023 60.4467L33.7196 52.2877L33.3485 53.3726Z" fill="black"/>
        </g>
        <path d="M30.4215 62.4187C23.0418 59.5829 19.5458 50.8134 22.613 42.8313C25.6802 34.8493 34.1491 30.6774 41.5289 33.5132C48.9086 36.349 52.4046 45.1186 49.3374 53.1006C46.2702 61.0826 37.8013 65.2545 30.4215 62.4187Z" fill="white"/>
        <path opacity="0.1" d="M29.6216 61.7943C22.7618 59.1597 19.5724 50.8492 22.4978 43.2322C25.4232 35.6152 33.3557 31.5762 40.2155 34.2109C47.0753 36.8455 50.2647 45.156 47.3393 52.773C44.4139 60.3899 36.4814 64.4289 29.6216 61.7943Z" fill="black"/>
        <path d="M29.9565 60.9209C23.5304 58.4528 20.5426 50.6677 23.2831 43.5322C26.0236 36.3968 33.4545 32.6131 39.8806 35.0812C46.3067 37.5492 49.2945 45.3344 46.5541 52.4698C43.8136 59.6052 36.3826 63.3889 29.9565 60.9209Z" fill="white"/>
        <path opacity="0.5" d="M24.0153 41.8991C28.3943 47.0879 35.5926 55.5991 39.6351 60.2957C41.4848 59.3416 43.1017 57.9921 44.3711 56.3428L32.8284 34.7008C29.1978 35.6332 25.9336 38.2323 24.0153 41.8991Z" fill="#EBEBEB"/>
        <path opacity="0.5" d="M22.7731 45.1004C22.3781 46.5758 22.2121 48.103 22.2809 49.6288L34.929 61.637C35.6584 61.5804 36.381 61.4573 37.0879 61.269C33.4243 57.118 26.7229 49.5533 22.7731 45.1004Z" fill="#EBEBEB"/>
        <path d="M38.3707 36.031L38.0044 37.2606L38.1176 37.2905L38.2292 37.3235L38.5972 36.0939L38.3707 36.031Z" fill="#263238"/>
        <path d="M42.4622 39.9918C42.5156 40.05 42.5691 40.1097 42.6194 40.1711L43.4937 39.2622L43.3364 39.083L42.4622 39.9918Z" fill="#263238"/>
        <path d="M44.8993 44.8708C44.9166 44.9526 44.9323 45.0281 44.948 45.1177L46.1006 44.7734L46.0518 44.5265L44.8993 44.8708Z" fill="#263238"/>
        <path d="M44.6239 50.7106C44.6114 50.7531 44.5988 50.7939 44.5846 50.8348L45.6994 51.1493L45.7749 50.9009L44.6601 50.5864C44.6475 50.6273 44.6349 50.6697 44.6239 50.7106Z" fill="#263238"/>
        <path d="M41.6349 55.794L42.4211 56.6777L42.5972 56.4937L41.811 55.6101L41.6349 55.794Z" fill="#263238"/>
        <path d="M36.8818 58.6621L37.1208 59.8806L37.3535 59.8115L37.1145 58.5913C37.0375 58.618 36.9604 58.64 36.8818 58.6621Z" fill="#263238"/>
        <path d="M31.6047 58.6731L31.2368 59.9027L31.4617 59.9655L31.8296 58.736L31.7164 58.7045L31.6047 58.6731Z" fill="#263238"/>
        <path d="M26.3376 56.7296L26.4948 56.9089L27.3706 56C27.3171 55.9419 27.2637 55.8821 27.2134 55.8224L26.3376 56.7296Z" fill="#263238"/>
        <path d="M23.7381 51.22L23.7853 51.4669L24.9331 51.1226C24.9158 51.0408 24.9001 50.9653 24.8859 50.8757L23.7381 51.22Z" fill="#263238"/>
        <path d="M24.1332 44.8457L24.0593 45.0941L25.1741 45.4086C25.1867 45.3662 25.1977 45.3253 25.2103 45.2844L25.248 45.1602L24.1332 44.8457Z" fill="#263238"/>
        <path d="M27.2319 39.4997L28.0181 40.3833C28.0763 40.3204 28.1345 40.2607 28.1958 40.1994L27.4096 39.3157L27.2319 39.4997Z" fill="#263238"/>
        <path d="M32.479 36.1883L32.718 37.41C32.7966 37.3833 32.8752 37.3612 32.9507 37.3392L32.7117 36.1191L32.479 36.1883Z" fill="#263238"/>
        <path d="M32.5828 36.7339L34.4979 49.058L35.6709 48.698L32.902 36.6348L32.5828 36.7339Z" fill="#37474F"/>
        <path d="M41.3266 41.451L33.8909 48.1288L34.6833 49.0408L41.542 41.6978L41.3266 41.451Z" fill="#455A64"/>
        <path d="M34.5277 47.8882C34.5092 47.9406 34.5012 47.9962 34.5043 48.0517C34.5074 48.1073 34.5215 48.1616 34.5458 48.2117C34.5701 48.2617 34.604 48.3064 34.6458 48.3432C34.6875 48.38 34.7361 48.4081 34.7887 48.426C34.8989 48.4504 35.0142 48.4314 35.1106 48.3728C35.2071 48.3142 35.2771 48.2205 35.306 48.1115C35.3248 48.0591 35.333 48.0034 35.33 47.9479C35.327 47.8923 35.3129 47.8378 35.2886 47.7877C35.2643 47.7377 35.2302 47.6929 35.1884 47.6562C35.1466 47.6194 35.0978 47.5914 35.045 47.5737C34.9349 47.5493 34.8195 47.5683 34.7231 47.6269C34.6267 47.6855 34.5567 47.7792 34.5277 47.8882Z" fill="#C7C7C7"/>
        <path d="M34.7528 47.5659C34.642 47.625 34.5561 47.722 34.5111 47.8393C34.466 47.9566 34.4648 48.0861 34.5075 48.2043C34.5269 48.2595 34.558 48.3098 34.5987 48.3518C34.6394 48.3939 34.6887 48.4265 34.7433 48.4476C34.7979 48.4687 34.8564 48.4777 34.9147 48.4739C34.9731 48.4702 35.03 48.4538 35.0814 48.426C35.1923 48.3669 35.2781 48.2698 35.3232 48.1525C35.3682 48.0353 35.3695 47.9057 35.3267 47.7876C35.3074 47.7324 35.2763 47.682 35.2356 47.64C35.1949 47.598 35.1455 47.5653 35.091 47.5442C35.0364 47.5231 34.9779 47.5141 34.9195 47.5179C34.8611 47.5216 34.8042 47.538 34.7528 47.5659Z" fill="white"/>
        <path d="M34.8469 47.8127L26.6737 52.0974L26.7225 52.2248L34.9868 48.1807L34.8469 47.8127Z" fill="white"/>
        <path d="M52.3301 38.1307L51.4034 36.8996L49.3482 38.4466C49.2379 38.5296 49.1651 38.653 49.1458 38.7897C49.1265 38.9264 49.1623 39.0651 49.2453 39.1754L49.5461 39.5749C49.6291 39.6852 49.7525 39.758 49.8892 39.7773C50.0258 39.7965 50.1646 39.7607 50.2749 39.6777L52.3301 38.1307Z" fill="white"/>
        <path opacity="0.3" d="M52.3301 38.1307L51.4034 36.8996L49.3482 38.4466C49.2379 38.5296 49.1651 38.653 49.1458 38.7897C49.1265 38.9264 49.1623 39.0651 49.2453 39.1754L49.5461 39.5749C49.6291 39.6852 49.7525 39.758 49.8892 39.7773C50.0258 39.7965 50.1646 39.7607 50.2749 39.6777L52.3301 38.1307Z" fill="black"/>
        <path d="M56.4121 44.679C56.4121 44.679 61.6842 39.3031 56.9876 33.1756C52.2909 27.0481 45.8725 31.229 45.8725 31.229C45.8725 31.229 49.5707 39.1757 56.4121 44.679Z" fill="white"/>
        <path opacity="0.4" d="M56.4121 44.679C56.4121 44.679 61.6842 39.3031 56.9876 33.1756C52.2909 27.0481 45.8725 31.229 45.8725 31.229C45.8725 31.229 49.5707 39.1757 56.4121 44.679Z" fill="white"/>
        <g opacity="0.3">
            <path d="M54.049 42.5799C54.4672 42.9887 54.9012 43.3944 55.3509 43.7891C59.5035 38.465 57.6513 34.1976 57.5805 34.0404C57.722 37.5735 55.2094 41.1318 54.049 42.5799Z" fill="white"/>
            <path d="M52.9878 41.4934C53.145 41.6695 53.3196 41.8441 53.491 42.0217C53.5193 41.9871 53.5476 41.951 53.5774 41.9164C56.9124 37.8534 57.2363 33.52 57.2363 33.52C56.2222 37.7166 54.0476 40.3896 52.9878 41.4934Z" fill="white"/>
        </g>
        <path opacity="0.1" d="M45.8709 31.2369C47.4798 34.4575 49.4791 37.4676 51.8239 40.1994C49.6053 37.1773 47.937 33.413 48.4103 32.0136C48.6414 31.3265 49.533 30.0498 53.3994 30.3438C49.5597 28.8296 45.8709 31.2369 45.8709 31.2369Z" fill="black"/>
        <path d="M57.941 32.433L58.0034 32.5159C58.2421 32.833 58.1785 33.2835 57.8614 33.5222L56.9029 34.2437C56.5859 34.4823 56.1354 34.4188 55.8967 34.1017L55.8343 34.0188C55.5956 33.7017 55.6592 33.2512 55.9762 33.0126L56.9347 32.2911C57.2518 32.0524 57.7023 32.1159 57.941 32.433Z" fill="white"/>
        <path opacity="0.4" d="M57.941 32.433L58.0034 32.5159C58.2421 32.833 58.1785 33.2835 57.8614 33.5222L56.9029 34.2437C56.5859 34.4823 56.1354 34.4188 55.8967 34.1017L55.8343 34.0188C55.5956 33.7017 55.6592 33.2512 55.9762 33.0126L56.9347 32.2911C57.2518 32.0524 57.7023 32.1159 57.941 32.433Z" fill="white"/>
        <path d="M51.0771 52.011C51.0771 52.011 51.3585 50.9795 51.956 48.8898C52.5221 46.9118 54.0174 41.8142 55.8114 39.888C60.5285 34.8266 70.8904 34.825 78.3591 30.9256C82.4473 28.7903 82.5589 27.5025 83.7193 27.7887C84.8797 28.0749 83.1171 34.6599 76.0792 37.2528C76.0792 37.2528 79.5007 38.5924 79.3812 39.5154C79.2617 40.4384 76.1861 40.8393 74.1295 40.517C74.1295 40.517 77.2491 43.5045 76.5541 44.6051C75.8591 45.7058 71.9848 44.7797 70.4376 44.0705C70.4376 44.0705 72.1672 46.1492 71.4565 46.9008C70.3558 48.0643 66.8243 46.1712 66.8243 46.1712C66.8243 46.1712 67.8762 47.5863 67.156 48.0219C66.1749 48.6115 63.2833 47.2719 63.2833 47.2719C63.2833 47.2719 62.4547 49.8568 58.6386 48.3018C58.6386 48.3018 57.7093 50.2263 54.9136 48.8128C54.9136 48.8128 53.5913 49.492 53.0818 50.3851C52.5724 51.2782 51.5802 52.1493 51.0771 52.011Z" fill="#EBEBEB"/>
        <path d="M52.1824 49.264C52.3223 49.0329 52.5865 48.9228 52.8113 48.7923C53.5582 48.4244 54.3365 47.8851 54.0944 46.9322L54.0048 47.0281C55.1667 47.2263 56.1746 46.6916 56.0331 45.4039C55.9979 45.071 55.924 44.7433 55.813 44.4274L55.596 44.5847C58.7313 46.8237 59.5269 45.4935 57.9766 42.3425L57.692 42.5689C60.8729 45.102 62.3823 45.113 60.9939 40.6711L60.7125 40.8896C60.9668 41.0418 61.2401 41.1597 61.5254 41.2403C63.3367 41.7544 64.1009 40.2544 64.5805 38.8125C64.7441 38.2997 65.0239 37.8315 65.398 37.4445C65.7722 37.0575 66.2307 36.7621 66.7378 36.5814C67.7677 36.2071 68.8951 36.1442 69.9847 36.215C70.537 36.252 71.0864 36.3244 71.6294 36.432C71.0923 36.2893 70.5451 36.1878 69.9926 36.1285C67.6812 35.8644 65.2047 36.2574 64.288 38.6946C63.9736 39.4525 63.722 40.2308 63.0647 40.7135C62.4201 41.1632 61.5553 40.9494 60.9169 40.5704L60.4845 40.3141L60.6417 40.7859C60.799 41.278 61.5034 43.69 60.8901 43.8928C60.0631 43.9494 58.6071 42.7922 57.9404 42.2796L57.2863 41.7513C57.6369 42.495 58.725 44.4809 58.3162 45.2325C57.8445 45.7042 56.2454 44.6664 55.7737 44.3535L55.4057 44.1004C55.6495 44.7781 56.0111 45.6036 55.6636 46.2938C55.3366 46.874 54.5284 46.9338 53.9246 46.8536C54.2548 47.8175 53.5425 48.3128 52.7988 48.7404C52.5786 48.8835 52.3271 49.0125 52.1918 49.2515L52.1824 49.264Z" fill="#C7C7C7"/>
        <path d="M64.0868 41.5028C64.2295 41.9449 64.3394 42.3968 64.4154 42.8551C64.4579 43.2324 64.5302 43.657 64.3368 43.9982C63.7755 44.7482 62.4091 44.2686 61.6889 43.9809L61.4924 43.896C61.5689 44.3197 61.5885 44.7517 61.5506 45.1806C61.4216 46.7089 59.5678 45.569 58.865 45.1083L58.9153 45.3866C59.0096 45.896 59.0458 46.9212 58.3288 46.9071C57.6778 46.8442 57.0473 46.4684 56.4844 46.1382L56.368 46.0674C56.4907 46.6162 56.2894 47.2703 55.7124 47.4637C55.5452 47.5252 55.3698 47.5613 55.1919 47.5706C56.0284 47.6115 56.5898 47.014 56.5111 46.1806L56.4152 46.2419C56.9813 46.5989 57.9231 47.2388 58.6165 47.0722C59.2785 46.7923 59.2455 45.9338 59.159 45.3426L58.9703 45.4668C59.4401 45.7957 59.9668 46.0346 60.5238 46.1712C61.9091 46.4715 61.9169 45.0422 61.7628 44.0737L61.5962 44.2042C62.4154 44.5186 63.8729 44.9762 64.4783 44.0925C64.8289 43.4023 64.3494 42.1884 64.0915 41.5076L64.0868 41.5028Z" fill="#C7C7C7"/>
        <path opacity="0.1" d="M51.077 52.0094C51.5802 52.1493 52.577 51.2877 53.0881 50.3914C53.5991 49.4952 54.9199 48.8191 54.9199 48.8191C57.7155 50.2342 58.6448 48.308 58.6448 48.308C62.4609 49.8631 63.2896 47.2781 63.2896 47.2781C61.6496 48.8332 58.6464 47.6036 58.6464 47.6036C56.8366 49.4574 54.9293 48.275 54.9293 48.275C54.5188 48.334 54.1049 48.3655 53.6903 48.3694C53.1604 48.3615 54.0849 45.3599 54.9183 43.0799C55.7045 40.9258 58.6322 37.726 59.9609 37.0483H59.9483C58.3319 37.7936 56.9183 38.7025 55.813 39.888C54.0173 41.8126 52.5204 46.9134 51.956 48.8898C51.3585 50.9795 51.077 52.0094 51.077 52.0094Z" fill="black"/>
        <path d="M75.8087 36.7401C78.889 35.7763 81.8246 33.586 83.1186 30.5592C83.3326 30.0538 83.4908 29.5266 83.5903 28.9868C83.6235 28.8638 83.6235 28.7341 83.5903 28.611C83.4724 28.3327 83.1422 28.5261 82.9803 28.6488C82.7614 28.8102 82.5514 28.9834 82.3513 29.1676C82.5919 29.045 82.823 28.9098 83.0667 28.7997C83.1634 28.746 83.2709 28.7149 83.3812 28.7085C83.3812 28.7085 83.3482 28.6912 83.3513 28.6928C83.3409 28.7679 83.3208 28.8414 83.2916 28.9113C82.095 32.4743 78.9629 34.8989 75.8087 36.7401Z" fill="white"/>
        <path d="M78.7646 39.0468C78.1168 39.5185 77.2552 39.5059 76.4863 39.6207C75.7567 39.7009 74.7457 39.7606 74.0366 39.9352C75.2541 40.3882 76.5945 40.3854 77.8102 39.9273C78.1955 39.7433 78.6514 39.4839 78.7631 39.0405L78.7646 39.0468Z" fill="white"/>
        <path d="M74.0255 41.2198C74.3014 41.7974 74.6388 42.3436 75.0318 42.8488C75.362 43.3519 75.8463 43.7796 75.947 44.3928C76.1812 44.1161 76.1121 43.6837 76.013 43.3645C75.8394 42.8937 75.5744 42.4619 75.2333 42.0938C74.8922 41.7258 74.4818 41.4287 74.0255 41.2198Z" fill="white"/>
        <path d="M64.0254 37.4666C63.6411 37.9763 63.3132 38.5262 63.0474 39.1066C62.7533 39.6317 62.5945 40.2575 62.1039 40.6286C62.4577 40.7104 62.8099 40.4494 63.0474 40.2151C63.7248 39.4648 64.0766 38.4762 64.0254 37.4666Z" fill="white"/>
        <path d="M56.8425 4.2027L59.1198 6.95865C61.1567 9.42358 64.5381 10.316 67.5261 9.17734L70.8669 7.90419L68.1109 10.1816C65.646 12.2185 64.7535 15.5998 65.8923 18.5878L67.1654 21.9286L64.888 19.1727C62.8511 16.7077 59.4697 15.8153 56.4817 16.954L53.141 18.2271L55.8969 15.9498C58.3618 13.9129 59.2543 10.5315 58.1156 7.54348L56.8425 4.2027Z" fill="#D9D6FE"/>
    </g>
    <defs>
        <clipPath id="clip0_10060_4814">
            <rect width="78.6182" height="78.6182" fill="white" transform="matrix(-1 0 0 1 94 0)"/>
        </clipPath>
    </defs>
</svg>
