<svg width="263" height="151" viewBox="0 0 263 151" fill="none" xmlns="http://www.w3.org/2000/svg">
    <path d="M63.5199 42.7492C110.542 42.7492 154.772 55.0759 201.099 42.7492C231.005 34.7916 251.779 16.0236 259.625 -5.5647H-88V150C-45.432 150 -18.8813 135.508 1.15095 107.829C17.9584 84.6048 9.96902 42.7492 63.5199 42.7492Z" fill="url(#paint0_linear_52_159)"/>
    <path d="M262 -14C261.427 -11.153 260.633 -8.33563 259.625 -5.5647M259.625 -5.5647C251.779 16.0236 231.005 34.7916 201.099 42.7492C154.772 55.0759 110.542 42.7492 63.5199 42.7492C9.96902 42.7492 17.9584 84.6048 1.15094 107.829C-18.8813 135.508 -45.432 150 -88 150V-5.5647H259.625Z" stroke="white" stroke-linecap="round"/>
    <defs>
        <linearGradient id="paint0_linear_52_159" x1="-3.5" y1="79" x2="115.5" y2="-27" gradientUnits="userSpaceOnUse">
            <stop stop-color="#E8E4FF"/>
            <stop offset="1" stop-color="#E7EDFF"/>
        </linearGradient>
    </defs>
</svg>
