<?xml version="1.0" ?><!-- Uploaded to: SVG Repo, www.svgrepo.com, Generator: SVG Repo Mixer Tools -->
<svg width="800px" height="800px" viewBox="0 0 32 32" data-name="Layer 1" id="Layer_1" xmlns="http://www.w3.org/2000/svg"><defs><style>.cls-1{fill:#4d4d4d;}</style></defs><title/><path class="cls-1" d="M17,12a1,1,0,0,0,0-2,1,1,0,0,1,0-2,3,3,0,0,0,0-6,1,1,0,0,0,0,2,1,1,0,0,1,0,2,3,3,0,0,0,0,6Z"/><path class="cls-1" d="M29,24H23.2l.18-1H25a4,4,0,0,0,4-4V18a3,3,0,0,0-3-3H24.83l.15-.82a1,1,0,0,0-.21-.82A1,1,0,0,0,24,13H8a1,1,0,0,0-.77.36,1,1,0,0,0-.21.82L8.8,24H3a1,1,0,0,0,0,2H4.56L7.2,28.88l.13.12a5.08,5.08,0,0,0,3,1H21.67a5.08,5.08,0,0,0,3-1l.13-.12L27.44,26H29a1,1,0,0,0,0-2Zm-3-7a1,1,0,0,1,1,1v1a2,2,0,0,1-2,2H23.74l.73-4ZM9.2,15H22.8l-1.63,9H10.83ZM23.4,27.45a3,3,0,0,1-1.73.55H10.33a3,3,0,0,1-1.73-.55L7.27,26H24.73Z"/></svg>