<svg width="128" height="124" viewBox="0 0 128 124" fill="none" xmlns="http://www.w3.org/2000/svg">
    <path fill-rule="evenodd" clip-rule="evenodd"
        d="M22 3.848C22 7.44 21.72 7.807 17.802 9.346C13.654 10.975 13.573 10.965 11 8.5C8.98 6.564 8.127 6.273 7.2 7.2C6.273 8.127 6.564 8.98 8.5 11C10.965 13.573 10.975 13.654 9.346 17.802C7.807 21.72 7.44 22 3.848 22C1.226 22 0 22.444 0 23.393C0 25.003 2.129 26 5.568 26C7.393 26 8.343 26.886 9.508 29.673C10.993 33.228 10.961 33.431 8.524 35.975C6.57 38.015 6.273 38.873 7.2 39.8C8.127 40.727 8.98 40.436 11 38.5C13.573 36.035 13.654 36.025 17.802 37.654C21.739 39.201 22 39.547 22 43.225C22 46.42 22.324 47.085 23.75 46.815C24.974 46.583 25.593 45.356 25.811 42.73C26.08 39.481 26.608 38.773 29.734 37.467C33.242 36.001 33.428 36.036 36.18 38.672C38.366 40.767 39.284 41.116 40.2 40.2C41.116 39.284 40.76 38.359 38.642 36.148C35.901 33.287 35.9 33.279 37.634 29.642C38.866 27.058 40.019 26 41.603 26C44.88 26 47 24.976 47 23.393C47 22.452 45.784 21.997 43.25 21.99C39.799 21.98 39.36 21.647 37.744 17.801L35.987 13.623L38.687 10.805C40.77 8.63 41.116 7.716 40.2 6.8C39.284 5.884 38.366 6.233 36.18 8.328C33.416 10.976 33.256 11.005 29.673 9.508C26.886 8.343 26 7.393 26 5.568C26 2.129 25.003 0 23.393 0C22.444 0 22 1.226 22 3.848ZM100.791 13.558C100.057 15.17 99.107 15.871 98.155 15.506C93.98 13.904 85.082 13.863 79.009 15.419C66.598 18.599 58.019 25.696 52.354 37.472C50.509 41.306 49 45.007 49 45.696C49 47.394 52.038 48.786 69.168 54.934L83.835 60.199L81.536 66.35C80.271 69.732 77.496 77.337 75.368 83.249L71.5 93.997L49.351 93.999L27.201 94L20.646 85.196C12.224 73.885 10.967 72.782 6.942 73.18C2.892 73.58 -0.535 77.734 0.334 81.193C0.976 83.752 16.998 105.698 19.723 107.75C20.635 108.438 22.421 109 23.691 109C25.823 109 26 109.421 26 114.5V120H14C2.65 120 2 120.109 2 122.008C2 123.999 2.503 124.015 57.25 123.758C105.58 123.532 112.5 123.312 112.5 122C112.5 120.795 110.678 120.443 103.25 120.212L94 119.925V114.117C94 109.58 94.437 107.914 96 106.5C98.969 103.813 98.655 98.66 95.365 96.073C93.176 94.351 91.314 94 84.365 94C79.764 94 76 93.829 76 93.62C76 92.955 87.139 62.528 87.523 62.143C87.726 61.941 89.828 62.463 92.196 63.305C94.563 64.146 102.321 66.904 109.435 69.433C116.549 71.962 122.681 73.686 123.062 73.265C125.311 70.779 127.494 60.773 127.495 52.944C127.496 45.064 127.199 43.787 123.726 36.76C119.808 28.833 113.655 22.281 107.215 19.179C104.404 17.824 104.014 17.211 104.517 14.925C105.341 11.17 102.375 10.082 100.791 13.558ZM29.033 13.517C30.646 14.351 32.649 16.354 33.483 17.967C39.686 29.962 24.762 40.668 15.425 30.922C6.776 21.894 17.847 7.733 29.033 13.517ZM82.583 24.25C78.267 28.579 75.068 33.072 72.176 38.866C69.879 43.467 68 47.885 68 48.683C68 50.257 67.559 50.176 59.538 47.12C56.809 46.08 54.414 44.741 54.214 44.143C53.529 42.088 60.365 30.843 64.43 27.339C69.526 22.945 72.569 21.344 79.23 19.55C89.13 16.885 89.462 17.351 82.583 24.25ZM98 20.34C98 21.359 85.73 54.621 85.122 55.251C83.833 56.587 72 51.994 72.001 50.158C72.002 47.485 77.818 35.957 81.814 30.708C85.756 25.53 93.171 20 96.171 20C97.177 20 98 20.153 98 20.34ZM107.054 30.224C108.604 36.688 107.77 47.496 105.048 56.196L102.953 62.893L96.226 60.362C92.527 58.97 89.382 57.713 89.238 57.57C89.018 57.351 97.194 34.327 100.939 24.618C102.002 21.864 102.135 21.812 103.946 23.451C104.988 24.394 106.386 27.442 107.054 30.224ZM120.114 38.583C123.654 45.77 124.673 53.454 123.09 61.028C121.364 69.289 121.294 69.337 114.462 66.987C111.213 65.869 108.219 64.619 107.81 64.21C107.4 63.8 107.977 60.548 109.091 56.982C111.549 49.118 112.562 36.08 111.176 30.131L110.159 25.762L113.638 29.131C115.552 30.984 118.466 35.237 120.114 38.583ZM17.382 87.5L25.192 98H47.502H69.813L68.739 101.5L67.664 105H44.863H22.062L12.974 92.966C6.221 84.023 4.047 80.427 4.511 78.966C4.884 77.79 6.026 77 7.353 77C9.008 77 11.557 79.668 17.382 87.5ZM92.8 99.2C94.494 100.894 94.29 103.675 92.418 104.393C90.767 105.026 72 105.262 72 104.649C72 104.456 72.494 102.881 73.098 101.149L74.196 98H82.898C88.333 98 92.051 98.451 92.8 99.2ZM65.999 109.25C65.999 109.388 65.144 111.75 64.101 114.5L62.203 119.5L46.101 119.775L30 120.05V114.525V109H48C57.9 109 66 109.112 65.999 109.25ZM90 114.5V120H78.5C72.175 120 67 119.63 67 119.178C67 118.726 67.717 116.251 68.594 113.678L70.188 109H80.094H90V114.5Z"
        fill="#BE3030" stroke="#000000" stroke-width="4" />
</svg>
